<svg xmlns="http://www.w3.org/2000/svg">
    <symbol id="icon" viewBox="0 0 77 68">
        <path d="M44.2495 64.5C41.5552 69.1667 34.8195 69.1667 32.1252 64.5L0.948264 10.5C-1.74604 5.83334 1.62184 0 7.01044 0L69.3643 0C74.7529 0 78.1207 5.83333 75.4264 10.5L44.2495 64.5Z" fill="var(--dropdown-color)"/>
    </symbol>
    <symbol id="settings-gear" viewBox="0 0 35 35">
        <path d="M15.0978 6.75521C15.9016 4.49474 19.0984 4.49474 19.9022 6.75521C20.4085 8.17872 22.0345 8.85226 23.3991 8.20364C25.5659 7.17366 27.8263 9.43413 26.7964 11.6009C26.1477 12.9655 26.8213 14.5915 28.2448 15.0978C30.5053 15.9016 30.5053 19.0984 28.2448 19.9022C26.8213 20.4085 26.1477 22.0345 26.7964 23.3991C27.8263 25.5659 25.5659 27.8263 23.3991 26.7964C22.0345 26.1477 20.4085 26.8213 19.9022 28.2448C19.0984 30.5053 15.9016 30.5053 15.0978 28.2448C14.5915 26.8213 12.9655 26.1477 11.6009 26.7964C9.43413 27.8263 7.17366 25.5659 8.20364 23.3991C8.85226 22.0345 8.17872 20.4085 6.75521 19.9022C4.49474 19.0984 4.49474 15.9016 6.75521 15.0978C8.17872 14.5915 8.85226 12.9655 8.20364 11.6009C7.17366 9.43413 9.43413 7.17366 11.6009 8.20364C12.9655 8.85226 14.5915 8.17872 15.0978 6.75521Z" fill="var(--settings-color)"/>
        <ellipse cx="17.5" cy="17.5" rx="7" ry="7" fill="var(--bg-color)"/>
    </symbol>
</svg>
